<svg xmlns:xlink="http://www.w3.org/1999/xlink" viewBox="0 0 161 161"><defs><path id="n" fill="#6c5d53" d="m72-176 1 1-4 4h-1Zm0 0 1 1-4 4h-1Zm0 1-3 3 1 1v-1l1 1-1 1 2 1v-1l1 1v1l1 1 3-3Zm-29-28 2 1-3 3-1-2Zm0 0 1 1-2 3-1-2Zm29 28C37-424 36-423 36-422h1m-248-36c249 34 248 35 247 35h-1"/><path id="o" fill="none" d="m69-173 2-2-1-1-2 3M47-420l-5-5-2 2m6 4-1-1m-3 0 1 1m29 244-3 3 1 1v-1l1 1-1 1 2 1v-1l1 1v1l1 1 3-3Zm-29-28 2 1-3 3-1-2Zm0 0 1 1-2 3-1-2Zm29 28C37-424 36-423 36-422h1m-248-36c249 34 248 35 247 35h-1m37 247 1 1-4 4h-1Zm0 0 1 1-4 4h-1Z"/><path id="p" fill="none" d="m244-64 2 2-2 2-2-2Zm-1 1 6 6z"/><path id="q" fill="none" stroke="#000" d="M46-262zl-2 2Z"/><path id="y" fill="#8b9c71" d="m171 272 1 1-9 9-2-1Z"/><path id="A" fill="#8b9c71" d="M-244 141 37-425l-8 8 9-6 15 14c-14-15-14-15-13-16l8-8-9 7-13-13Z"/><path id="C" fill="url(#a)" d="M-487 936v7h20C2 0 4 1 5 3L0 14C-1 2-3 3-5 3h-20v7h24C2 0 5-2 6-5 3-6 3-17 0-23-2-3-4-5-6-5Z"/><path id="D" fill="#424b36" stroke="none" d="m-159-358 198-65-4 2 2-4v1l3-1 2-3q-3 3-4 2Z"/><path id="E" fill="#8b9c71" stroke="none" d="m-164-361 201-64-1 2 3-1 3 4-3-4 1-3-2 1Z"/><path id="F" fill="url(#b)" d="M-490 942C-2 0-4 1-5 3l5 11C1 2 3 3 5 3h24C2 0 4-1 5-3L0-14C-1-2-3-3-5-3Z"/><path id="G" fill="#8b9c71" stroke="none" d="m-168-364-2 2 3 2 207-67Z"/><path id="H" fill="url(#c)" d="M-513 946v12h17C-2-4-2-8 0-12Z"/><path id="M" d="M1000 3000h129v48h-129Z"/><path id="O" fill="url(#d)" d="M1000 3000h129v48h-129Z"/><path id="P" fill="url(#e)" d="M70 3000h9v48h-9Z"/><path id="Q" fill="url(#f)" d="M70 3000h9v48h-9Z"/><path id="V" stroke="none" d="M186-6A223 223 0 0 1 42-428a3 3 0 0 1 0 6 3 3 0 0 1-6 0 3 3 0 0 1 0-6"/><path id="W" d="M141-132A156 156 0 0 1 41-427a2 2 0 0 1 0 4 2 2 0 0 1-5 0 2 2 0 0 1 0-4"/><path id="X" stroke="none" d="M187-7 41-423l-2 2-2-6Zm-1 1A223 223 0 0 1 42-428a3 3 0 0 1 0 6 3 3 0 0 1-6 0 3 3 0 0 1 0-6"/><path id="Y" stroke="none" d="M187-7 41-423l-2 2-2-6Z"/><path id="ab" stroke="none" d="M185-6A223 223 0 0 1 41-427a3 3 0 0 1 0 5 3 3 0 0 1-5 0 3 3 0 0 1 0-5"/><path id="ac" d="M141-131A156 156 0 0 1 40-427a2 2 0 0 1 0 4h-3a2 2 0 0 1 0-4"/><path id="ad" stroke="none" d="M187-7 41-423l-2 2-2-6Zm3-4-2 2Zm0 0L41-423l-2 1-2-5Zm0 0-2 2Zm0 0L41-423l-2 1-2-5Z"/><path id="ae" fill="#8b9c71" d="M180 0A226 226 0 0 1 47-433a9 9 0 0 1 0 17 9 9 0 0 1-17 0 9 9 0 0 1 0-17"/><path id="af" fill="#8b9c71" stroke="#000" d="M152-85A181 181 0 0 1 45-432a7 7 0 0 1 0 14 7 7 0 0 1-13 0 7 7 0 0 1 0-14"/><path id="ag" stroke="none" d="m180 0 2 2-4 4-2-3Z"/><path id="ah" d="m194-184 2 1-2 1-1-1Zm14-15 2 2-1 1-2-2Z"/><linearGradient xlink:href="#g" id="z" x1="193" x2="106" y1="872" y2="872" gradientTransform="translate(2000 996)" gradientUnits="userSpaceOnUse"/><linearGradient id="g"><stop offset="0"/><stop offset="1" stop-opacity="0"/></linearGradient><linearGradient xlink:href="#h" id="B" x1="-484" x2="-516" y1="1000" y2="1000" gradientTransform="translate(2000 996)" gradientUnits="userSpaceOnUse"/><linearGradient id="h"><stop offset="0" stop-color="#d7dc8e" stop-opacity="0"/><stop offset="0" stop-color="#c0ca95" stop-opacity="0"/><stop offset="1" stop-color="#c2f0a8"/></linearGradient><linearGradient xlink:href="#g" id="a" x1="-462" x2="-478" y1="977" y2="949" gradientUnits="userSpaceOnUse"/><linearGradient xlink:href="#h" id="b" x1="-482" x2="-482" y1="958" y2="948" gradientUnits="userSpaceOnUse"/><linearGradient xlink:href="#i" id="c" x1="-507" x2="-507" y1="959" y2="948" gradientUnits="userSpaceOnUse"/><linearGradient id="i"><stop offset="0" stop-color="#d7dc8e" stop-opacity="0"/><stop offset="0" stop-color="#c0ca95" stop-opacity="0"/><stop offset="1" stop-color="#c2f0a8"/></linearGradient><linearGradient id="I" x1="138" x2="114" y1="915" y2="945" gradientTransform="translate(2000 996)" gradientUnits="userSpaceOnUse"><stop offset="0" stop-color="#272b1f"/><stop offset="1" stop-color="#272b1f" stop-opacity="0"/></linearGradient><linearGradient xlink:href="#j" id="J" x1="3000" x2="3000" y1="944" y2="1000" gradientUnits="userSpaceOnUse"/><linearGradient id="j"><stop offset="0" stop-color="#b8d093"/><stop offset="0" stop-color="#8b9c71"/><stop offset="1" stop-color="#39412d"/></linearGradient><linearGradient xlink:href="#j" id="K" x1="3000" x2="3000" y1="-45" y2="88" gradientUnits="userSpaceOnUse"/><linearGradient id="L" x1="3000" x2="3000" y1="997" y2="1000" gradientUnits="userSpaceOnUse"><stop offset="0" stop-color="#b8d093"/><stop offset="0" stop-color="#8b9c71"/><stop offset="1" stop-color="#39412d"/></linearGradient><linearGradient id="k"><stop offset="0" stop-color="#b8d093"/><stop offset="1" stop-color="#8b9c71"/><stop offset="1" stop-color="#39412d"/></linearGradient><linearGradient xlink:href="#k" id="d" x1="1000" x2="1000" y1="3000" y2="3000" gradientTransform="translate(-94 -56)" gradientUnits="userSpaceOnUse"/><linearGradient xlink:href="#k" id="e" x1="1000" x2="1000" y1="3000" y2="3000" gradientTransform="translate(-2000 -48)" gradientUnits="userSpaceOnUse"/><linearGradient xlink:href="#k" id="f" x1="1000" x2="1000" y1="3000" y2="3000" gradientTransform="translate(-2000 -48)" gradientUnits="userSpaceOnUse"/><linearGradient xlink:href="#i" id="S" x1="92" x2="92" y1="930" y2="921" gradientUnits="userSpaceOnUse"/><linearGradient id="T" x1="81" x2="81" y1="935" y2="917" gradientUnits="userSpaceOnUse"><stop offset="0" stop-color="#d7dc8e" stop-opacity="0"/><stop offset="0" stop-color="#c0ca95" stop-opacity="0"/><stop offset="1" stop-color="#c2f0a8"/></linearGradient><linearGradient id="l"><stop offset="0" stop-color="#b8d093"/><stop offset="0" stop-color="#8b9c71"/><stop offset="1" stop-color="#39412d"/></linearGradient><linearGradient xlink:href="#l" id="Z" x1="2000" x2="2000" y1="1000" y2="1000" gradientUnits="userSpaceOnUse"/><linearGradient xlink:href="#l" id="aa" x1="2000" x2="3000" y1="999" y2="1000" gradientUnits="userSpaceOnUse"/><filter id="m"><feGaussianBlur stdDeviation="1"/></filter><filter id="N" width="1" height="2" x="0" y="-1" color-interpolation-filters="sRGB"><feGaussianBlur stdDeviation="9"/></filter><filter id="R" width="2" height="2" x="-1" y="0"><feGaussianBlur stdDeviation="4"/></filter><radialGradient id="r" cx="49" cy="1000" r="30" gradientTransform="rotate(-49 2000 -390)scale(.9 .6)" gradientUnits="userSpaceOnUse"><stop offset="0" stop-opacity="0"/><stop offset="1"/></radialGradient><radialGradient xlink:href="#l" id="U" cx="2000" cy="995" r="27" gradientTransform="matrix(2 .3 -.1 1 -2000 -546)" gradientUnits="userSpaceOnUse"/></defs><path d="M-480 40-8 8 2 2l-6 2 4-4-1 1 1-1-12 12L0 0l-1 1 1-1-4 4 2-6-6 10L2 2l1 1-2-2 3 3-3-3 3 3-1-1-3-3 1 1-1-1 12 12L1-1l31 33L0 0l2 2 1 1-2-2 2 2-1-1v-4L1-1 0-4v4l12-12 16 40L0 0l1 1 1 1-2-2 1 1-1-1h1-1l2-2-2 2v1l-1-2h1v1l-1-1 1 1-2-2 1 1 1 1-28-28 40 16L0 0h4L1-1l1-1h-4l-6-6 7 7-51-51L-1-1l-7-7ZM60 52 0 0l3 12L0 0h1-2l-2-12L1 0h-2Z" filter="url(#m)"/><path fill="#8b9c71" stroke="#000" stroke-linecap="round" stroke-linejoin="round" d="m-103 0-9 9-4-4-30 30 4 4-9 9-4-4h0l93 94h0l-11-11 9-10 11 11 30-30-11-11 10-9Z"/><use xlink:href="#n"/><use xlink:href="#o"/><path fill="#8b9c71" stroke="#000" stroke-linecap="round" stroke-linejoin="round" d="m-103 0-9 9-4-4 248-336-11-11 9-9Z"/><path fill="#6c7958" stroke="#000" stroke-linecap="round" stroke-linejoin="round" d="m38 141-8-574 1 16 8-8-1 3-2 2 3-5-1 2h1q-2-3-4-1l3 3-1-3-2 2h-1l-2 1 4-3 2-1-6 7 12-3-6-3 6 6 11 10 13-47-11-11 3-2-2 2ZM19-421l19-4h1-1Zm8 41 11-45 1 1Z"/><use xlink:href="#p"/><use xlink:href="#q" stroke-linecap="round" stroke-linejoin="round"/><use xlink:href="#p"/><use xlink:href="#q" stroke-linecap="round" stroke-linejoin="round"/><path fill="#8b9c71" d="M38 141c-1-567-2-568-4-568 2 2-1 4 0 7l4-5 3 4q-2-3 1-2-2-2 0-3h-3v-2q-1 2-2-1l1 4Z"/><path fill="url(#r)" stroke="#000" stroke-linecap="round" stroke-linejoin="round" stroke-width="2" d="M2000 2000C-7 0-13 2-18 6c8 2 8 14 18 21V0q8 6 19 5h0C6 0 13-2 18-6 4-3 6-8 7-12 0-1 0-2 0-4q0-2-7-8c2 8-4 6-11 6A33 33 0 0 0-1 0Z" transform="rotate(45 532 -166)scale(.2)"/><path fill="#8b9c71" d="M-225-123A158 203 45 0 1 42-428a3 4 45 0 1-1 6 3 4 45 0 1-6 1 3 4 45 0 1 1-7"/><path fill="#483e37" stroke="#000" stroke-linecap="round" stroke-linejoin="round" d="M-93-274A79 102 45 0 1 40-427a1 2 45 0 1 0 4 1 2 45 0 1-3 0 1 2 45 0 1 0-3"/><path fill="none" d="M38 141c-1-567-2-567-3-567v5l3-4 2 4q-1-3 2-2-3-2-1-3l-2 1v-2q-1 1-2-1l1 3Z"/><path fill="#483e37" d="M38 141v-566l-2 3a2 2 0 0 0 3-2l2-3-3 2"/><path fill="#483e37" stroke="#000" stroke-linecap="round" stroke-linejoin="round" d="m38 141 4 4h0z"/><path fill="#8b9c71" stroke="#000" stroke-linecap="round" stroke-linejoin="round" d="m-103 0-30 30 59 59 31-30ZM38 141l-9 9 12 12c-1-585 1-585 3-587l6-6-11-12ZM-1-385l-9 9 14 14 7-6c29-58 29-60 27-62l-9-9Z"/><path fill="#a4ba86" stroke="#000" stroke-linecap="round" stroke-linejoin="round" d="m-103 0-6 6-4-4-30 30 4 4-7 6L53-423l30-30Z"/><path fill="#6c5d53" d="m288-391 4-4-1-1Zm0 0 4-4-1-1Zm0-1 3-3 1 1-1 1 1 1 1-1 1 1v2l1-1 1 1-3 3Zm-28-28 1 1 3-3-1-1Zm0 0 1 1 3-3-1-1Zm28 28C39-426 40-427 41-427l1 1M5-674c35 249 36 248 36 247l-1-1"/><path fill="none" d="m291-394-3 2v-1l2-2M43-416l-5-5 3-2m3 6-1-1m-11-14 1 1m255 39 3-3 1 1-1 1 1 1 1-1 1 1v2l1-1 1 1-3 3Zm-28-28 1 1 3-3-1-1Zm0 0 1 1 3-3-1-1Zm28 28C39-426 40-427 41-427l1 1M5-674c35 249 36 248 36 247l-1-1m248 37 4-4-1-1Zm0 0 4-4-1-1Z"/><use xlink:href="#y"/><path fill="url(#z)" stroke="#000" stroke-linecap="round" stroke-linejoin="round" stroke-width="4" d="M2000 2000v66h82C10 0 19-8 19-18v-47h-82ZM0 278v66h101v-47C0-10-8-18-19-18h-64Z" transform="rotate(45 532 -166)scale(.2)"/><use xlink:href="#y"/><path fill="#8b9c71" stroke="#000" stroke-linecap="round" stroke-linejoin="round" d="m-103 0-9 9 6 5 9-9ZM-1-385l-9 9 6 5 9-9Z"/><path fill="none" stroke="#b4da9a" d="m38 141-58-58-29 29"/><path fill="#6c5353" d="m29 130 19 19-1 1-19-19Zm0 0 19 19-1 1-19-19Z"/><use xlink:href="#A"/><path fill="#8b9c71" d="m-134-340-2 2a97 97 0 0 0 174-86l2 2v-3l2-2Zm-1 3a98 98 0 0 1 174-88v1h-1v-1m-173 88a98 98 0 0 1 174-88v1h-1v-1"/><use xlink:href="#A"/><path fill="#8b9c71" d="m124-597 2-2a97 97 0 0 1-86 174l1 2-3-1-2 2Zm2-2a98 98 0 0 0-88 174h1-1m88-174a98 98 0 0 0-88 174h1-1"/><path fill="#6c5353" d="M-103 0A223 223 0 0 0 37-425l-1 2 3-1 15 14-15-14 1-2a1 1 0 0 0-2 0l-13-14ZM26-414l-2 2a9 9 0 0 0 14-11l14 13a10 10 0 0 0-12-15l2-2-4 2-15-15 15 14m-282 567 15 15ZM38-424l15 15Zm0 0 15 15Zm0 0 15 15Zm0 0 15 15Zm0 0 15 15Zm0 0 15 15Zm0 0 15 15Zm0 0 15 15Zm0 0 15 15Zm0 0 15 15Zm0 0 15 15Zm0 0 15 15Zm0 0 15 15Zm0 0 15 15Zm0 0 15 15Zm0 0 15 15Zm0 0 15 15Zm0 0 15 15Zm0 0 15 15Zm0 0 15 15Zm0 0 15 15Zm0 0 15 15Zm0 0 15 15Zm0 0 15 15Z"/><path fill="#8b9c71" d="M-244 141 37-425l-8 8 9-6 15 14c-14-15-14-15-13-16l8-8-9 7-13-13Zm0 0L37-425l-6 6 7-5 12 12-10-13 6-6c-7 6-7 5-8 5l-10-10Zm95-473 2 2-1 1-2-2Zm0 0 2 2-1 1-2-2Zm-130 155-1-1-1 1 1 1ZM34-420l-1-1-1 1 1 2Z"/><path fill="url(#B)" stroke="#000" stroke-linecap="round" stroke-linejoin="round" stroke-width="4" d="M1000 2000v65h41v-65ZM0 278v65h41v-65Z" transform="rotate(45 532 -166)scale(.2)"/><g stroke="#000" stroke-linecap="round" stroke-linejoin="round" stroke-width="2"><use xlink:href="#C" transform="rotate(45 532 -166)scale(.2)"/><use xlink:href="#D"/><use xlink:href="#E"/><use xlink:href="#F" transform="rotate(45 532 -166)scale(.2)"/><use xlink:href="#G"/><use xlink:href="#H" transform="rotate(45 532 -166)scale(.2)"/></g><path fill="#8b9c71" d="m29 130 8 9-23 23-8-9Z"/><path fill="#6c5353" d="m29 130 7 7-22 22-6-7Z"/><g stroke="#000" stroke-linecap="round" stroke-linejoin="round" stroke-width="2"><path fill="#8b9c71" stroke="none" d="m-163-361 3 2 200-66-3 1 1-2-3-3-1 1 4 3 3-1 2-3-4 2Zm4 3 198-65-4 2 2-4v1l3-1 2-3q-3 3-4 2Zm-5-3 201-64-1 2 3-1 3 4-3-4 1-3-2 1Zm-4-3-2 2 3 2 207-67Z"/><use xlink:href="#C" transform="rotate(45 532 -166)scale(.2)"/><use xlink:href="#D"/><use xlink:href="#E"/><use xlink:href="#F" transform="rotate(45 532 -166)scale(.2)"/><use xlink:href="#G"/><use xlink:href="#H" transform="rotate(45 532 -166)scale(.2)"/></g><path fill="#6c5353" d="m-103 0 7 6ZM38-424l7 6Zm0 0 7 6Zm0 0 7 6Zm0 0 7 6Zm0 0 7 6Zm0 0 7 6Zm0 0 7 6Zm0 0 7 6Zm0 0 7 6Zm0 0 7 6Zm0 0 7 6Zm0 0 7 6Zm0 0 7 6Zm0 0 7 6Zm0 0 7 6Zm0 0 7 6Zm0 0 7 6Zm0 0 7 6Zm0 0 7 6Zm0 0 7 6Zm0 0 7 6Zm0 0 7 6Zm0 0 7 6Zm0 0 7 6Zm0 0 7 6Zm0 0 7 6Zm0 0 7 6Zm0 0 7 6Zm0 0 7 6Zm0 0 7 6Zm0 0 7 6Zm0 0 7 6Zm0 0 7 6Zm0 0 7 6Zm0 0 7 6Zm0 0 7 6Zm0 0 7 6Z"/><path fill="#8b9c71" d="m138 218 7 8zm-5 5 8 7-1 1zm0 0 8 7-1 1zm0 0 8 7-1 1z"/><path fill="url(#I)" d="M2000 2000 77 2-1 98Z" transform="rotate(45 532 -166)scale(.2)"/><path fill="none" d="m-103 0-30 30L39-425l10 11-8-12h-3l26-26a18 18 0 0 1-24 27h-1v-3l-11-7ZM96-200a1780 1780 0 0 0-60-224h2l-2 2 2-3h-1l1 3v-3q0 5 5 5-1-7 2-11c-6 5-7 3-8 2ZM26 134l2 2-3 3-2-2ZM167-8l-55-228-3 3 3-2h1l3-3ZM26 134l2 2-3 3-2-2Zm69-332a108 162 45 0 1-56-227v1h-1v-1m57 227a108 162 45 0 1-56-227v1h-1v-1m57 227a108 162 45 0 1-56-227v1h-1v-1m57 227a108 162 45 0 1-56-227v1h-1v-1m57 227a108 162 45 0 1-56-227v1h-1v-1m57 227a108 162 45 0 1-56-227v1h-1v-1m53 230a102 307 45 0 1-52-230v1h-1v-1"/><path fill="none" stroke="#000" stroke-linecap="round" stroke-linejoin="round" d="M74-234 39-425h-1l-1 2 2-2v1"/><g fill="#6c7958" stroke="#000" stroke-linecap="round" stroke-linejoin="round"><path stroke="none" d="m316 127-8 8 5 5C113-234 114-234 115-235l5-5c-7 4-7 3-8 2l-4-4Zm0 0-8 8 1 1C112-235 113-235 114-235l6-6c-7 5-7 5-8 4Zm0 0-8 8 1 1C112-235 113-235 114-235l6-6c-7 5-7 5-8 4ZM174 268l2 2-5 6-2-2Zm-1 1 1 1v1l-1-1Zm0 0 1 1v1l-1-1Zm0 0 1 1v1l-1-1Z"/><path d="m118 212-5 6-1-1Z"/></g><path fill="#5d684b" stroke="#000" stroke-linecap="round" stroke-linejoin="round" d="M321 141 35-427l1 1-3-2 4 2-4 1 7 14 22-7Z"/><path fill="#8b9c71" stroke="#000" stroke-linecap="round" stroke-linejoin="round" d="M202-23 25-426l14 6 5 6c-5-10-5-9-5-8v-1l12 3Z"/><g stroke="#000" stroke-linecap="round" stroke-linejoin="round"><g fill="url(#J)" stroke-width="2" transform="rotate(45 358 -428)scale(.2)"><path d="M3000-23A29 29 0 0 0-10 2v5l3-2 2 2h-5A30 30 0 0 0 0 21h5A24 24 0 0 0 5 7L0 0l7 5v5c0-8 7-8 14-10v-5A25 25 0 0 0 7-5L5-7h5A30 30 0 0 0 0-21h-5A24 24 0 0 0-5-7l-2 2v-5l-3 8"/><path d="M3000 28A24 24 0 0 0-12 12h-5a30 30 0 0 0 17 9h5A24 24 0 0 0 5 7L0 0l7 5v5c0-8 7-8 14-10v-5A25 25 0 0 0 7-5L5-7h5A30 30 0 0 0 0-21h-5A24 24 0 0 0-5-7c3 5 1 3-2 2Z"/></g><path fill="url(#K)" stroke-width="4" d="M3000 122 114-27C7-4 28-12 33-37v-82C0-13-7-26-38-39l-82 9 3 61c99-25 92-15 89-3v92C6 11-3 19 23 34l77-5Z" transform="rotate(45 385 -458)scale(.2)"/><path fill="#8b9c71" d="m155-9-348-387c-16-9-13-7-9-10l10-11c-18 9-17 7-19 1l-12-9-7 8c16 9 14 10 12 11l-12 12c18-10 16-10 17-5l11 9Z"/><path fill="#626e4f" d="m221 10-20 20-410-435q1 1 6-1l10-10c-17 8-16 6-18 1Z"/></g><path fill="url(#L)" stroke="#000" stroke-linecap="round" stroke-linejoin="round" stroke-width="2" d="M3000 986v8C-3 0-5 1-7 4c3 1 3 9 7 14V0q3 4 7 4v6h31A6 6 0 0 0 6-6v-3l314 4v-10L-320-5v-3A6 6 0 0 0-6-6h-31ZM404 7v4L-16 1v15L16 1v3h6V0h5v4h3V0h6v4h3v-23h-3v5h-6v-5h-3v5h-5v-5ZM-37 5v15h20V5Zm28-5v15h9V0Z" transform="rotate(45 532 -166)scale(.2)"/><path fill="none" d="m322 140-3 3 1 1v-1l1 1v1h1v1l3-3h-1l-1-1h1v-1l-1 1-1-1h1Z"/><path fill="#a4ba86" stroke="#000" stroke-linecap="round" stroke-linejoin="round" d="M196-17 52-423l-83-67 72 79Z"/><g stroke="#000" stroke-linecap="round" stroke-linejoin="round" transform="rotate(43 704 198)scale(.18 .2)"><use xlink:href="#M" stroke-width="4" filter="url(#N)"/><use xlink:href="#O" stroke-width="4"/><use xlink:href="#P" stroke-width="8"/><use xlink:href="#Q" stroke-width="8"/></g><path fill="#8b9c71" stroke="#000" stroke-width="3" d="M2112 663A90455 90455 0 0 1 8-8l47 6C4 0 8 3 8 8v3H5V8C0-3-2-4-4-4l-51 6C-3 0-4 2-4 4v3h-3l7-7Zm0 0A90455 90455 0 0 1 8-8l47 6C4 0 8 3 8 8v3H5V8C0-3-2-4-4-4l-51 6C-3 0-4 2-4 4v3h-3l7-7Z" style="text-decoration-line:none;text-indent:0;text-transform:none" transform="rotate(45 532 -166)scale(.2)"/><path fill="none" stroke="#000" stroke-linecap="round" stroke-linejoin="round" d="m323 139-1 1L37-425l-1 3 3-3v2l-1 1 5 4a4 4 0 0 0-3-7l4-4a3 3 0 0 0-5 2l-5-4Z"/><path fill="none" d="M8807 8626 85-376l-1 1-94-97Z"/><path fill="none" stroke="#000" stroke-linecap="round" stroke-linejoin="round" d="m322 141-2 2-2-1Zm424 424 2 2-2 2-2-2Zm0 0L41-422l-2 2-3-7Z"/><path fill="none" d="m322 140 1 1-3 3-1-1Z"/><path fill="none" stroke="#000" stroke-linecap="round" stroke-linejoin="round" d="m110-72-4 3h0Zm0 0-4 3h0Z"/><path fill="#8b9c71" stroke="#000" stroke-linecap="round" stroke-linejoin="round" d="M446-267 40-411l-67-83 79 71Z"/><g stroke="#000" stroke-linecap="round" stroke-linejoin="round" transform="rotate(47 616 256)scale(.18 .2)"><use xlink:href="#M" stroke-width="4" filter="url(#N)"/><use xlink:href="#O" stroke-width="4"/><use xlink:href="#P" stroke-width="8"/><use xlink:href="#Q" stroke-width="8"/></g><g stroke="#000" stroke-linecap="round" stroke-linejoin="round" transform="rotate(47 616 256)scale(.18 .2)"><use xlink:href="#M" stroke-width="4" filter="url(#N)"/><use xlink:href="#O" stroke-width="4"/><use xlink:href="#P" stroke-width="8"/><use xlink:href="#Q" stroke-width="8"/></g><path fill="#8b9c71" d="M-136-319A102 102 0 0 1 39-425v1h-1v-1m-174 106A102 102 0 0 1 39-425v1h-1v-1"/><path stroke="#000" stroke-linecap="round" stroke-linejoin="round" stroke-width="2" d="M89 909C-5 0-10 7-10 15s14 0 20 0h8v-29h-5Z" filter="url(#R)" transform="rotate(45 532 -166)scale(.2)"/><path fill="#4e573f" d="m-77-283-4 4ZM38-425l-3 1q0 2 3 3l4-4Z"/><g stroke="#000" stroke-linecap="round" stroke-linejoin="round" stroke-width="2"><path fill="url(#S)" d="M91 909h5v29h-5Z" transform="rotate(45 532 -166)scale(.2)"/><path fill="url(#T)" d="M89 909C-5 0-10 7-10 15s14 0 20 0h2v-29Z" transform="rotate(45 532 -166)scale(.2)"/></g><path fill="#8b9c71" d="M180 0A225 225 0 0 1 44-430a5 5 0 0 1 0 10 5 5 0 0 1-11 0 5 5 0 0 1 0-10"/><path fill="url(#U)" stroke="#000" stroke-linecap="round" stroke-linejoin="round" stroke-width="2" d="M2000 1000A25 25 0 0 1 0-36 25 25 0 0 1 36 0 25 25 0 0 1 0 36 25 25 0 0 1-36 0" transform="rotate(45 532 -166)scale(.2)"/><path fill="#8b9c71" d="m46 133 5 6-15 15-5-5Zm-1 1 5 6-13 13-5-5ZM186-7 173 6l4 3 3-4L38-426v1l3-2-1 2 5-5Zm-4 5A226 226 0 0 1 48-434a9 9 0 0 1 0 18 9 9 0 0 1-19 1 9 9 0 0 1 0-19M168-45A203 203 0 0 1 47-433a8 8 0 0 1 0 16 8 8 0 0 1-17 1 8 8 0 0 1 0-17M472 839A669 669 0 0 1 40-426v3h-3v-3M183-3A223 223 0 0 1 39-425v1h-1v-1M472 839A669 669 0 0 1 40-426v3h-3v-3"/><g fill="#8b9c71" stroke="#000" stroke-linecap="round" stroke-linejoin="round"><use xlink:href="#V"/><use xlink:href="#W"/><use xlink:href="#X"/><use xlink:href="#W"/><use xlink:href="#Y"/></g><path fill="url(#Z)" stroke="#000" stroke-linecap="round" stroke-linejoin="round" stroke-width="2" d="M2000 1947h38v109h-38Z" transform="rotate(45 532 -166)scale(.2)"/><path fill="none" d="m45 134 5 6-13 13-5-5Z"/><path fill="url(#aa)" stroke="#000" stroke-linecap="round" stroke-linejoin="round" stroke-width="2" d="M2000 957v88h23v-26C-2 0-5-1-6-4l6 4q-6-9 0-18C2-2 4-3 6-4v-37Z" transform="rotate(45 532 -166)scale(.2)"/><path fill="#8b9c71" d="M192-12 181-1"/><g fill="#8b9c71" stroke="#000" stroke-linecap="round" stroke-linejoin="round"><use xlink:href="#ab"/><use xlink:href="#ac"/><use xlink:href="#ad"/></g><path fill="#8b9c71" d="M182-2A226 226 0 0 1 48-434a9 9 0 0 1 0 18 9 9 0 0 1-19 1 9 9 0 0 1 0-19M168-45A203 203 0 0 1 47-433a8 8 0 0 1 0 16 8 8 0 0 1-17 1 8 8 0 0 1 0-17M192-12 181-1"/><g fill="#8b9c71" stroke="#000" stroke-linecap="round" stroke-linejoin="round"><use xlink:href="#ab"/><use xlink:href="#ac"/><use xlink:href="#ad"/></g><use xlink:href="#ae"/><use xlink:href="#af" stroke-linecap="round" stroke-linejoin="round"/><g fill="#8b9c71" stroke="#000" stroke-linecap="round" stroke-linejoin="round"><use xlink:href="#ag"/><use xlink:href="#ah"/></g><use xlink:href="#ae"/><use xlink:href="#af" stroke-linecap="round" stroke-linejoin="round"/><g fill="#8b9c71" stroke="#000" stroke-linecap="round" stroke-linejoin="round"><use xlink:href="#ag"/><use xlink:href="#ah"/></g><path fill="#8b9c71" d="M183-3A223 223 0 0 1 39-425v1h-1v-1M472 839A669 669 0 0 1 40-426v3h-3v-3"/><g fill="#8b9c71" stroke="#000" stroke-linecap="round" stroke-linejoin="round"><use xlink:href="#V"/><use xlink:href="#W"/><use xlink:href="#X"/><use xlink:href="#W"/><use xlink:href="#Y"/></g><use xlink:href="#n"/><use xlink:href="#o"/><use xlink:href="#n"/><use xlink:href="#o"/><use xlink:href="#n"/><use xlink:href="#o"/></svg>