<?xml version="1.0" standalone="no"?>
<!DOCTYPE svg PUBLIC "-//W3C//DTD SVG 20010904//EN"
 "http://www.w3.org/TR/2001/REC-SVG-20010904/DTD/svg10.dtd">
<svg version="1.0" xmlns="http://www.w3.org/2000/svg"
 width="959.000000pt" height="1280.000000pt" viewBox="0 0 959.000000 1280.000000"
 preserveAspectRatio="xMidYMid meet">
<metadata>
Created by potrace 1.15, written by Peter Selinger 2001-2017
</metadata>
<g transform="translate(0.000000,1280.000000) scale(0.100000,-0.100000)"
fill="#000000" stroke="none">
<path d="M3877 12785 c-180 -34 -330 -117 -480 -266 -51 -50 -135 -129 -188
-175 -140 -122 -174 -180 -185 -319 -6 -64 -2 -81 36 -195 22 -69 49 -131 58
-138 15 -11 15 -14 2 -22 -8 -5 -19 -11 -25 -13 -6 -2 -5 -18 3 -41 17 -45 11
-53 -25 -37 -14 7 -55 15 -89 18 -60 6 -64 5 -74 -19 -7 -13 -27 -30 -45 -37
-52 -18 -82 -47 -120 -115 l-35 -63 -84 -6 c-140 -10 -280 -67 -466 -190 -93
-62 -274 -243 -318 -319 -100 -171 -160 -386 -204 -733 -9 -69 -12 -251 -12
-590 1 -477 6 -602 44 -1015 5 -58 14 -163 20 -235 6 -71 15 -182 20 -245 5
-63 17 -214 26 -336 l17 -221 -37 -94 c-94 -234 -366 -1011 -401 -1147 -9 -31
-21 -99 -27 -150 -14 -114 0 -245 37 -337 20 -49 25 -79 25 -151 0 -99 20
-239 45 -313 l16 -49 -46 -91 c-25 -50 -63 -120 -85 -156 -22 -36 -40 -72 -40
-81 0 -8 9 -37 21 -63 19 -46 19 -51 4 -87 -39 -93 -58 -199 -63 -347 l-4
-147 -77 -78 c-79 -78 -131 -149 -192 -257 -18 -33 -57 -82 -87 -109 -38 -35
-66 -74 -98 -137 -103 -205 -151 -351 -164 -499 -5 -66 -17 -121 -40 -180 -58
-157 -94 -316 -94 -412 0 -79 -2 -88 -18 -88 -52 0 -76 -66 -108 -295 -32
-226 -96 -406 -243 -682 -63 -117 -72 -170 -72 -428 l0 -220 45 -22 c58 -30
130 -31 137 -3 4 14 14 20 34 20 24 0 33 -7 46 -35 16 -33 19 -35 69 -35 97 0
113 7 125 56 13 51 39 59 57 19 17 -38 37 -40 97 -11 l54 27 3 62 3 62 65 17
c102 25 180 23 224 -7 45 -30 52 -31 138 -3 60 19 73 20 115 10 68 -18 148 1
183 43 10 12 29 16 69 15 96 -3 99 -2 143 45 39 41 45 44 80 39 32 -6 41 -2
65 23 15 16 36 43 45 61 12 23 24 32 42 32 20 0 25 6 30 37 14 85 -31 192
-113 266 -60 54 -115 57 -367 21 -162 -22 -184 -20 -262 27 -134 81 -212 153
-212 195 0 29 49 165 85 234 38 75 65 159 65 205 0 30 8 38 97 96 54 35 137
102 186 149 101 97 106 108 107 265 0 112 22 204 53 225 45 29 103 97 135 158
18 34 39 62 46 62 35 0 449 493 529 631 29 50 53 135 63 225 5 54 10 63 36 79
59 35 224 173 276 230 82 92 105 151 82 210 -8 22 -6 33 12 58 49 71 152 197
159 195 4 -2 50 -57 103 -122 116 -145 205 -243 477 -531 367 -389 455 -455
802 -600 45 -19 44 -24 -41 -123 l-57 -67 0 -230 c0 -242 2 -258 52 -384 l25
-63 -36 -77 c-57 -121 -47 -203 33 -262 41 -30 43 -81 6 -111 -33 -25 -42 -66
-54 -233 -13 -169 -15 -1108 -3 -1149 6 -24 1 -46 -25 -106 -60 -139 -77 -237
-100 -556 l-6 -91 36 -36 c73 -72 185 -117 293 -117 44 0 59 5 98 35 l45 34
20 -24 c16 -22 27 -25 82 -25 35 0 69 4 75 8 7 4 14 30 15 57 2 28 9 53 14 57
16 12 196 9 248 -5 38 -10 50 -18 65 -47 22 -45 59 -52 93 -16 34 36 92 36
115 1 16 -24 20 -25 83 -19 47 5 70 12 79 26 16 22 58 24 79 3 23 -23 108 -9
162 26 49 32 69 35 116 18 47 -17 84 -3 131 48 42 45 43 46 91 39 46 -6 52 -4
90 29 23 19 51 51 63 70 20 33 21 40 10 127 -16 134 -58 215 -131 253 -38 20
-175 35 -325 35 -104 0 -143 4 -188 20 -84 28 -148 66 -196 115 l-42 43 11 68
c20 127 31 325 31 578 0 138 5 337 12 443 9 144 9 198 0 217 -10 22 -5 34 46
116 33 54 68 98 84 106 38 20 46 39 46 114 0 36 18 223 39 415 32 297 38 382
37 560 -1 300 -10 359 -83 543 -190 476 -513 1162 -751 1596 -65 118 -69 130
-53 141 16 12 6 25 -98 131 -63 66 -130 139 -149 164 -19 25 -69 84 -111 132
l-76 86 -6 284 c-5 300 -20 456 -65 698 -18 101 -27 188 -30 287 l-3 142 95
-63 c120 -80 249 -147 351 -182 172 -58 356 -18 568 123 136 91 588 560 815
846 58 72 89 104 96 97 17 -17 51 -11 90 15 20 14 46 25 57 25 40 0 77 31 127
107 28 43 56 92 62 109 7 20 21 34 43 42 37 14 181 120 215 159 20 21 23 35
20 77 -2 41 1 57 19 80 13 16 25 50 29 77 4 27 10 49 15 49 17 0 59 76 59 108
0 23 8 40 28 57 15 13 30 25 35 25 4 0 105 -40 225 -89 965 -395 1012 -413
1038 -396 14 9 29 13 35 9 6 -3 23 6 38 20 l28 27 74 -32 c41 -18 76 -34 78
-36 4 -3 -3 -29 -26 -90 -7 -17 57 -49 67 -33 6 9 13 9 28 1 18 -9 25 -8 42 9
25 25 26 46 3 59 -45 26 14 4 224 -85 126 -53 291 -122 367 -153 87 -35 143
-64 150 -76 14 -25 28 -35 38 -29 5 3 16 -2 25 -12 11 -11 18 -13 21 -5 5 16
22 14 22 -4 0 -9 9 -15 25 -15 14 0 55 -13 92 -30 36 -16 71 -30 78 -30 16 0
70 120 59 130 -5 4 -40 19 -79 34 -38 15 -78 36 -88 47 -10 11 -22 17 -28 14
-5 -4 -16 1 -24 9 -9 8 -22 13 -30 10 -8 -4 -15 -1 -15 6 0 7 -10 10 -27 6
-21 -5 -81 16 -243 84 -118 50 -282 119 -365 152 -166 68 -175 73 -175 98 0
16 52 148 104 263 66 147 10 165 -193 62 -71 -36 -134 -72 -141 -80 -17 -20
-27 -19 -35 4 -4 12 -42 37 -98 65 -124 60 -739 345 -1072 496 -148 67 -373
170 -500 228 -126 58 -239 105 -250 104 -11 0 -31 -14 -44 -29 -14 -16 -26
-23 -28 -16 -2 6 -25 28 -50 49 -43 36 -46 37 -59 19 -25 -34 -25 -8 0 53 13
34 27 75 31 91 9 41 -9 92 -43 123 -15 14 -191 117 -392 228 -201 112 -376
211 -390 220 -30 20 -123 50 -155 50 -15 0 -50 -28 -106 -86 -46 -47 -98 -94
-116 -105 -29 -18 -35 -19 -66 -5 -35 14 -35 14 -64 -21 l-28 -34 -105 42
c-58 24 -106 44 -108 45 -2 1 10 20 26 43 17 24 34 65 42 103 17 81 18 83 41
59 24 -25 21 -25 105 -5 113 26 171 68 216 158 93 184 131 432 97 635 -25 150
-205 457 -378 643 -120 130 -312 245 -481 289 -110 28 -285 34 -393 14z m1748
-2083 c531 -231 505 -217 505 -275 0 -48 -41 -97 -81 -97 -15 0 -54 12 -86 26
-55 24 -261 110 -512 214 -127 53 -151 69 -151 103 0 31 17 51 65 76 58 31
100 23 260 -47z m-1180 -236 c66 -15 140 -35 165 -43 46 -16 100 -49 100 -61
0 -4 -46 -7 -103 -7 -89 0 -107 -3 -139 -23 -32 -20 -124 -120 -171 -186 -13
-18 -18 -16 -85 41 -95 83 -178 138 -275 183 l-80 38 31 16 c31 16 33 15 72
-9 21 -14 61 -33 89 -44 l49 -18 58 31 c31 17 78 50 103 73 25 23 51 41 56 39
6 -2 64 -15 130 -30z m781 -432 c75 -33 104 -60 104 -95 0 -34 -53 -99 -81
-99 -15 0 -144 46 -157 55 -6 5 60 165 67 165 5 0 35 -12 67 -26z m-350 -109
c7 -18 69 -39 96 -31 14 3 32 -4 50 -20 19 -15 37 -22 51 -19 23 5 154 -47
196 -77 l24 -17 -26 -64 c-35 -87 -102 -336 -116 -428 -6 -41 -12 -119 -14
-174 l-2 -100 27 -3 26 -3 -43 -44 c-26 -25 -49 -60 -56 -84 -7 -23 -18 -41
-25 -41 -34 0 -129 -46 -160 -77 l-35 -35 -24 22 c-13 12 -40 61 -61 109 -20
47 -90 207 -155 355 -98 223 -119 278 -119 318 l0 48 43 0 c24 0 66 7 93 15
27 8 64 15 82 15 45 0 87 26 108 66 10 19 31 39 46 45 49 20 78 64 78 119 l0
49 -42 11 c-24 6 -58 16 -77 22 -32 10 -33 12 -16 24 24 18 44 18 51 -1z
m1126 -37 c-4 -15 3 -18 44 -20 27 -1 58 -2 69 -2 16 -1 19 -7 17 -34 -3 -26
3 -38 26 -60 l30 -28 -46 -30 c-67 -41 -163 -139 -210 -212 -22 -35 -42 -68
-44 -74 -3 -8 -17 -7 -46 5 -23 9 -50 17 -60 17 -9 0 -37 -26 -62 -57 -24 -31
-45 -52 -47 -46 -5 14 19 111 54 221 25 77 28 82 55 82 25 0 28 3 22 25 -4 17
7 57 36 129 l41 104 63 -2 c55 -1 62 -3 58 -18z m2513 -518 c3 -6 1 -26 -6
-45 -11 -30 -11 -37 4 -47 15 -12 15 -16 -3 -55 -10 -24 -23 -43 -29 -43 -5 0
-48 16 -96 36 -112 47 -112 62 0 121 80 42 118 52 130 33z m-141 -220 c25 -10
46 -24 46 -31 0 -7 -7 -8 -17 -4 -10 4 -42 16 -70 27 -29 12 -53 25 -53 30 0
12 33 5 94 -22z"/>
</g>
</svg>
